<svg xmlns="http://www.w3.org/2000/svg" width="18" height="18" viewBox="0 0 18 18" fill="none">
  <g clip-path="url(#clip0_160_18180)">
    <path d="M4.125 9C4.125 10.2929 4.63861 11.5329 5.55285 12.4471C6.46709 13.3614 7.70707 13.875 9 13.875C10.2929 13.875 11.5329 13.3614 12.4471 12.4471C13.3614 11.5329 13.875 10.2929 13.875 9C13.875 7.70707 13.3614 6.46709 12.4471 5.55285C11.5329 4.63861 10.2929 4.125 9 4.125C7.70707 4.125 6.46709 4.63861 5.55285 5.55285C4.63861 6.46709 4.125 7.70707 4.125 9Z" stroke="#8599FA" stroke-width="1.125" stroke-linecap="round" stroke-linejoin="round"/>
    <path d="M4.125 9H13.875M9 4.125C11.4375 7.375 11.4375 10.625 9 13.875C6.5625 10.625 6.5625 7.375 9 4.125ZM8.4375 1.125C8.4375 1.27418 8.49676 1.41726 8.60225 1.52275C8.70774 1.62824 8.85082 1.6875 9 1.6875C9.14918 1.6875 9.29226 1.62824 9.39775 1.52275C9.50324 1.41726 9.5625 1.27418 9.5625 1.125C9.5625 0.975816 9.50324 0.832742 9.39775 0.727252C9.29226 0.621763 9.14918 0.5625 9 0.5625C8.85082 0.5625 8.70774 0.621763 8.60225 0.727252C8.49676 0.832742 8.4375 0.975816 8.4375 1.125ZM14.0062 3.43125C14.0062 3.58043 14.0655 3.72351 14.171 3.829C14.2765 3.93449 14.4196 3.99375 14.5687 3.99375C14.7179 3.99375 14.861 3.93449 14.9665 3.829C15.072 3.72351 15.1312 3.58043 15.1312 3.43125C15.1312 3.28207 15.072 3.13899 14.9665 3.0335C14.861 2.92801 14.7179 2.86875 14.5687 2.86875C14.4196 2.86875 14.2765 2.92801 14.171 3.0335C14.0655 3.13899 14.0062 3.28207 14.0062 3.43125ZM16.3125 9C16.3125 9.14918 16.3718 9.29226 16.4773 9.39775C16.5827 9.50324 16.7258 9.5625 16.875 9.5625C17.0242 9.5625 17.1673 9.50324 17.2727 9.39775C17.3782 9.29226 17.4375 9.14918 17.4375 9C17.4375 8.85082 17.3782 8.70774 17.2727 8.60225C17.1673 8.49676 17.0242 8.4375 16.875 8.4375C16.7258 8.4375 16.5827 8.49676 16.4773 8.60225C16.3718 8.70774 16.3125 8.85082 16.3125 9ZM14.0062 14.5687C14.0062 14.7179 14.0655 14.861 14.171 14.9665C14.2765 15.072 14.4196 15.1312 14.5687 15.1312C14.7179 15.1312 14.861 15.072 14.9665 14.9665C15.072 14.861 15.1312 14.7179 15.1312 14.5687C15.1312 14.4196 15.072 14.2765 14.9665 14.171C14.861 14.0655 14.7179 14.0062 14.5687 14.0062C14.4196 14.0062 14.2765 14.0655 14.171 14.171C14.0655 14.2765 14.0062 14.4196 14.0062 14.5687ZM8.4375 16.875C8.4375 17.0242 8.49676 17.1673 8.60225 17.2727C8.70774 17.3782 8.85082 17.4375 9 17.4375C9.14918 17.4375 9.29226 17.3782 9.39775 17.2727C9.50324 17.1673 9.5625 17.0242 9.5625 16.875C9.5625 16.7258 9.50324 16.5827 9.39775 16.4773C9.29226 16.3718 9.14918 16.3125 9 16.3125C8.85082 16.3125 8.70774 16.3718 8.60225 16.4773C8.49676 16.5827 8.4375 16.7258 8.4375 16.875ZM2.86875 14.5687C2.86875 14.7179 2.92801 14.861 3.0335 14.9665C3.13899 15.072 3.28207 15.1312 3.43125 15.1312C3.58043 15.1312 3.72351 15.072 3.829 14.9665C3.93449 14.861 3.99375 14.7179 3.99375 14.5687C3.99375 14.4196 3.93449 14.2765 3.829 14.171C3.72351 14.0655 3.58043 14.0062 3.43125 14.0062C3.28207 14.0062 3.13899 14.0655 3.0335 14.171C2.92801 14.2765 2.86875 14.4196 2.86875 14.5687ZM0.5625 9C0.5625 9.14918 0.621763 9.29226 0.727252 9.39775C0.832742 9.50324 0.975816 9.5625 1.125 9.5625C1.27418 9.5625 1.41726 9.50324 1.52275 9.39775C1.62824 9.29226 1.6875 9.14918 1.6875 9C1.6875 8.85082 1.62824 8.70774 1.52275 8.60225C1.41726 8.49676 1.27418 8.4375 1.125 8.4375C0.975816 8.4375 0.832742 8.49676 0.727252 8.60225C0.621763 8.70774 0.5625 8.85082 0.5625 9ZM2.86875 3.43125C2.86875 3.58043 2.92801 3.72351 3.0335 3.829C3.13899 3.93449 3.28207 3.99375 3.43125 3.99375C3.58043 3.99375 3.72351 3.93449 3.829 3.829C3.93449 3.72351 3.99375 3.58043 3.99375 3.43125C3.99375 3.28207 3.93449 3.13899 3.829 3.0335C3.72351 2.92801 3.58043 2.86875 3.43125 2.86875C3.28207 2.86875 3.13899 2.92801 3.0335 3.0335C2.92801 3.13899 2.86875 3.28207 2.86875 3.43125Z" stroke="#8599FA" stroke-width="1.125" stroke-linecap="round" stroke-linejoin="round"/>
  </g>
  <defs>
    <clipPath id="clip0_160_18180">
      <rect width="18" height="18" fill="white"/>
    </clipPath>
  </defs>
</svg>
