<svg xmlns="http://www.w3.org/2000/svg" width="18" height="18" viewBox="0 0 18 18" fill="none">
  <path d="M12.9377 6.7501C12.2925 6.7502 11.6669 6.97215 11.1659 7.37874C10.6649 7.78533 10.3189 8.35183 10.186 8.98322C8.06873 8.8426 6.14948 7.83347 5.71636 6.67247C6.39026 6.51088 6.98078 6.10617 7.37465 5.53597C7.76852 4.96578 7.938 4.27024 7.85059 3.58276C7.76318 2.89529 7.42504 2.26429 6.90101 1.8108C6.37699 1.3573 5.70398 1.11325 5.01108 1.12544C4.31818 1.13763 3.65418 1.40521 3.14643 1.87685C2.63868 2.3485 2.32294 2.991 2.25976 3.68112C2.19659 4.37124 2.39043 5.06039 2.80411 5.61638C3.2178 6.17237 3.82218 6.55606 4.50136 6.69385V11.3063C3.81846 11.4457 3.21164 11.8337 2.79856 12.3951C2.38547 12.9565 2.19555 13.6513 2.2656 14.3447C2.33565 15.0382 2.66069 15.6809 3.17771 16.1483C3.69472 16.6157 4.36687 16.8745 5.06386 16.8745C5.76084 16.8745 6.43299 16.6157 6.95 16.1483C7.46702 15.6809 7.79206 15.0382 7.86211 14.3447C7.93217 13.6513 7.74224 12.9565 7.32915 12.3951C6.91607 11.8337 6.30925 11.4457 5.62636 11.3063V8.39935C6.92555 9.43543 8.5192 10.034 10.1792 10.1093C10.2828 10.632 10.5328 11.1146 10.9 11.5007C11.2672 11.8869 11.7365 12.1607 12.2533 12.2905C12.7702 12.4202 13.3132 12.4004 13.8193 12.2335C14.3253 12.0665 14.7735 11.7593 15.1116 11.3475C15.4498 10.9357 15.664 10.4362 15.7294 9.9074C15.7947 9.37856 15.7084 8.84204 15.4806 8.36031C15.2529 7.87859 14.8929 7.47149 14.4427 7.18642C13.9925 6.90135 13.4706 6.75003 12.9377 6.7501ZM3.37523 3.9376C3.37523 3.49005 3.55302 3.06082 3.86949 2.74436C4.18596 2.42789 4.61518 2.2501 5.06273 2.2501C5.51028 2.2501 5.93951 2.42789 6.25597 2.74436C6.57244 3.06082 6.75023 3.49005 6.75023 3.9376C6.75023 4.38515 6.57244 4.81437 6.25597 5.13084C5.93951 5.44731 5.51028 5.6251 5.06273 5.6251C4.61518 5.6251 4.18596 5.44731 3.86949 5.13084C3.55302 4.81437 3.37523 4.38515 3.37523 3.9376ZM6.75023 14.0626C6.75605 14.2878 6.71671 14.5119 6.63455 14.7216C6.55239 14.9314 6.42906 15.1226 6.27184 15.2839C6.11462 15.4452 5.92669 15.5735 5.71912 15.661C5.51156 15.7486 5.28857 15.7937 5.06329 15.7937C4.83802 15.7937 4.61503 15.7486 4.40746 15.661C4.1999 15.5735 4.01197 15.4452 3.85475 15.2839C3.69752 15.1226 3.5742 14.9314 3.49203 14.7216C3.40987 14.5119 3.37054 14.2878 3.37636 14.0626C3.37636 13.615 3.55415 13.1858 3.87061 12.8694C4.18708 12.5529 4.6163 12.3751 5.06386 12.3751C5.51141 12.3751 5.94063 12.5529 6.2571 12.8694C6.57357 13.1858 6.75023 13.615 6.75023 14.0626ZM12.9389 11.2501C12.4913 11.2501 12.0621 11.0723 11.7456 10.7558C11.4291 10.4394 11.2514 10.0102 11.2514 9.5626C11.2514 9.11505 11.4291 8.68582 11.7456 8.36936C12.0621 8.05289 12.4913 7.8751 12.9389 7.8751C13.3864 7.8751 13.8156 8.05289 14.1321 8.36936C14.4486 8.68582 14.6264 9.11505 14.6264 9.5626C14.6264 10.0102 14.4486 10.4394 14.1321 10.7558C13.8156 11.0723 13.3864 11.2501 12.9389 11.2501Z" fill="#8599FA"/>
</svg>
