<svg xmlns="http://www.w3.org/2000/svg" width="18" height="18" viewBox="0 0 18 18" fill="none">
  <path d="M16.2529 4.18945L9.50287 0.81445C9.34672 0.736422 9.17456 0.695801 9 0.695801C8.82544 0.695801 8.65327 0.736422 8.49712 0.81445L1.74712 4.18945C1.56028 4.28281 1.40312 4.42635 1.29325 4.60398C1.18337 4.78162 1.12511 4.98633 1.125 5.1952V12.8047C1.12511 13.0136 1.18337 13.2183 1.29325 13.3959C1.40312 13.5736 1.56028 13.7171 1.74712 13.8105L8.49712 17.1855C8.65327 17.2635 8.82544 17.3041 9 17.3041C9.17456 17.3041 9.34672 17.2635 9.50287 17.1855L16.2529 13.8105C16.4397 13.7171 16.5969 13.5736 16.7068 13.3959C16.8166 13.2183 16.8749 13.0136 16.875 12.8047V5.1952C16.8749 4.98633 16.8166 4.78162 16.7068 4.60398C16.5969 4.42635 16.4397 4.28281 16.2529 4.18945ZM6.60487 6.63408L12.6157 3.62808L15.0435 4.84195L9 7.81083L6.60487 6.63408ZM9 1.8202L11.358 2.9992L5.33588 6.01083L2.9565 4.84195L9 1.8202ZM2.25 5.7487L4.78125 6.99183V10.125C4.78125 10.2741 4.84051 10.4172 4.946 10.5227C5.05149 10.6282 5.19457 10.6875 5.34375 10.6875C5.49293 10.6875 5.63601 10.6282 5.7415 10.5227C5.84699 10.4172 5.90625 10.2741 5.90625 10.125V7.5442L8.4375 8.78733V15.8985L2.25 12.8047V5.7487ZM9.5625 15.8985V8.78845L15.75 5.7487V12.8047L9.5625 15.8985Z" fill="#BF9F85"/>
</svg>
