<svg xmlns="http://www.w3.org/2000/svg" width="18" height="18" viewBox="0 0 11 11" fill="none">
  <path fill-rule="evenodd" clip-rule="evenodd" d="M6.47243 2.58276L8.41737 4.52769C8.67514 4.78555 8.81995 5.13522 8.81995 5.49982C8.81995 5.86442 8.67514 6.21409 8.41737 6.47194L6.47243 8.41688C6.21458 8.67465 5.86491 8.81946 5.50031 8.81946C5.13571 8.81946 4.78603 8.67465 4.52818 8.41688L2.58325 6.47194C2.32547 6.21409 2.18066 5.86442 2.18066 5.49982C2.18066 5.13522 2.32547 4.78555 2.58325 4.52769L4.52818 2.58276C4.78603 2.32498 5.13571 2.18018 5.50031 2.18018C5.86491 2.18018 6.21458 2.32498 6.47243 2.58276ZM5.27137 4.58338C5.08903 4.58338 4.91417 4.65582 4.78523 4.78475C4.6563 4.91368 4.58387 5.08855 4.58387 5.27088V5.72876C4.58387 5.91109 4.6563 6.08596 4.78523 6.21489C4.91417 6.34382 5.08903 6.41626 5.27137 6.41626H5.72925C5.91158 6.41626 6.08645 6.34382 6.21538 6.21489C6.34431 6.08596 6.41675 5.91109 6.41675 5.72876V5.27088C6.41675 5.08855 6.34431 4.91368 6.21538 4.78475C6.08645 4.65582 5.91158 4.58338 5.72925 4.58338H5.27137Z" fill="#9D7840"/>
</svg>
