<svg xmlns="http://www.w3.org/2000/svg" width="28" height="28" viewBox="0 0 32 32" fill="#888888">
  <path d="M16,31C7.7285156,31,1,24.2709961,1,16S7.7285156,1,16,1s15,6.7290039,15,15S24.2714844,31,16,31z M16,3C8.8320313,3,3,8.831543,3,16s5.8320313,13,13,13s13-5.831543,13-13S23.1679688,3,16,3z"/>
  <circle cx="16" cy="11.3684206" r="3.3684211"/>
  <path d="M20.6734371,24h-9.3468742c-0.8295326,0-1.5020018-0.6724682-1.5020018-1.5020008v-0.9865093c0-2.984272,2.4192314-5.4035034,5.4035034-5.4035034h1.54387c2.9842739,0,5.4035034,2.4192314,5.4035034,5.4035034v0.9865093C22.1754379,23.3275318,21.5029697,24,20.6734371,24z"/>
</svg>
