<?xml version="1.0" encoding="UTF-8"?>
<svg width="100%" height="100%" viewBox="0 0 32 32" version="1.1" xmlns="http://www.w3.org/2000/svg" xmlns:xlink="http://www.w3.org/1999/xlink">
    <!-- Generator: Sketch 54.1 (76490) - https://sketchapp.com -->
    <title>icons / db / empty copy</title>
    <desc>Created with Sketch.</desc>
    <g id="icons-/-db-/-empty-copy" stroke="none" stroke-width="1" fill="none" fill-rule="evenodd">
        <path d="M27,12 C24.0666667,13.4666667 20.4,14.2 16,14.2 C11.6,14.2 7.93333333,13.4666667 5,12 L5,8.09615385 C5,7.21153846 7.64,5 16,5 C24.36,5 27,7.21153846 27,8.09615385 L27,12 Z M27,14.64 L27,18.16 C24.0666667,19.6266667 20.4,20.36 16,20.36 C11.6,20.36 7.93333333,19.6266667 5,18.16 L5,14.64 C7.34666667,16.1066667 11.0133333,16.84 16,16.84 C20.9866667,16.84 24.6533333,16.1066667 27,14.64 Z M27,20.8 L27,24.9038462 C27,25.7884615 23.48,28 15.56,28 C7.64,28 5,25.7884615 5,24.9038462 L5,20.8 C7.34666667,22.2666667 11.0133333,23 16,23 C20.9866667,23 24.6533333,22.2666667 27,20.8 Z" id="Combined-Shape" fill="#FFF"></path>
    </g>
</svg>