<?xml version="1.0" encoding="UTF-8"?>
<svg width="100%" height="100%" viewBox="0 0 32 32" version="1.1" xmlns="http://www.w3.org/2000/svg" xmlns:xlink="http://www.w3.org/1999/xlink">
    <!-- Generator: Sketch 54.1 (76490) - https://sketchapp.com -->
    <title>icons / deleted / empty copy</title>
    <desc>Created with Sketch.</desc>
    <g id="icons-/-deleted-/-empty-copy" stroke="none" stroke-width="1" fill="none" fill-rule="evenodd">
        <path d="M25.2857143,5.33333823 L19.9285714,5.33333823 L19.5089286,4.55417299 C19.3276084,4.21439976 18.9558067,3.9997351 18.5491071,4.00000734 L13.4464286,4.00000734 C13.0404939,3.99855089 12.6693935,4.21381187 12.4910714,4.55417299 L12.0714286,5.33333823 L6.71428571,5.33333823 C6.31979661,5.33333823 6,5.63181452 6,6 L6,7.33333456 C6,7.70152371 6.31979661,8 6.71428571,8 L25.2857143,8 C25.6802034,8 26,7.70152371 26,7.33333456 L26,6 C26,5.63181452 25.6802034,5.33333823 25.2857143,5.33333823 Z M7.99375,25.890625 C8.06799532,27.0762278 9.05113724,27.9998476 10.2390625,28 L21.7609375,28 C22.9488628,27.9998476 23.9320047,27.0762278 24.00625,25.890625 L25,10 L7,10 L7.99375,25.890625 Z" id="Shape" fill="#FFF" fill-rule="nonzero"></path>
    </g>
</svg>