<?xml version="1.0" encoding="UTF-8"?>
<svg width="100%" height="100%" viewBox="0 0 32 32" version="1.1" xmlns="http://www.w3.org/2000/svg" xmlns:xlink="http://www.w3.org/1999/xlink">
    <!-- Generator: Sketch 54.1 (76490) - https://sketchapp.com -->
    <title>icons / fn / empty copy</title>
    <desc>Created with Sketch.</desc>
    <g id="icons-/-fn-/-empty-copy" stroke="none" stroke-width="1" fill="none" fill-rule="evenodd">
        <path d="M10.3991713,11.0045906 C10.4680726,6.519536 14.0347707,2.93878054 18.371547,3.00079346 C18.718632,3.00079346 19,3.28216147 19,3.6292465 L19,6.68064887 C19,7.0277339 18.718632,7.30910191 18.371547,7.30910191 C17.3884,7.25819781 16.4281495,7.62690969 15.7153239,8.32902429 C15.0024983,9.0311389 14.5995974,10.0050955 14.6008287,11.0231609 L14.6008287,13.1587449 L18,13.1587449 C18.5522847,13.1587449 19,13.6064601 19,14.1587449 L19,16.5041939 C19,17.0564786 18.5522847,17.5041939 18,17.5041939 L14.6008287,17.5041939 L14.6008287,20.9954094 C14.5319274,25.480464 10.9652293,29.0612195 6.62845304,28.9992065 C6.28136801,28.9992065 6,28.7178385 6,28.3707535 L6,25.3379214 C6,24.9908364 6.28136801,24.7094684 6.62845304,24.7094684 C7.61159997,24.7603725 8.57185048,24.3916606 9.28467608,23.689546 C9.99750168,22.9874314 10.4004026,22.0134748 10.3991713,20.9954094 L10.3991713,17.5041939 L7.62845304,17.5041939 C7.07616829,17.5041939 6.62845304,17.0564786 6.62845304,16.5041939 L6.62845304,14.1587449 C6.62845304,13.6064601 7.07616829,13.1587449 7.62845304,13.1587449 L10.3991713,13.1587449 L10.3991713,11.0045906 Z M25.3199105,19.6711409 C25.6930344,20.0393553 25.6970143,20.6403286 25.3288,21.0134524 C25.3273282,21.0149438 25.3258516,21.0164303 25.32437,21.0179119 L23.3512304,22.9910515 L25.3199105,24.9597315 C25.6955136,25.3353346 25.6955136,25.9443075 25.3199105,26.3199105 C24.9443075,26.6955136 24.3353346,26.6955136 23.9597315,26.3199105 L21.9910515,24.3512304 L20.0179119,26.32437 C19.6472347,26.6950472 19.0462482,26.6950472 18.675571,26.32437 C18.6740894,26.3228884 18.6726127,26.3214019 18.6711409,26.3199105 C18.2997632,25.9435811 18.3017683,25.3380527 18.67563,24.964191 L20.6487696,22.9910515 L18.6711409,21.0134228 C18.30048,20.6427619 18.30048,20.0418018 18.6711409,19.6711409 C19.0418018,19.30048 19.6427619,19.30048 20.0134228,19.6711409 L21.9910515,21.6487696 L23.964191,19.67563 C24.3380527,19.3017683 24.9435811,19.2997632 25.3199105,19.6711409 Z" id="Combined-Shape" fill="#FFF" fill-rule="nonzero"></path>
    </g>
</svg>