<?xml version="1.0" encoding="UTF-8"?>
<svg width="100%" height="100%" viewBox="0 0 32 32" version="1.1" xmlns="http://www.w3.org/2000/svg" xmlns:xlink="http://www.w3.org/1999/xlink">
    <!-- Generator: Sketch 54.1 (76490) - https://sketchapp.com -->
    <title>icons / 404s / empty copy</title>
    <desc>Created with Sketch.</desc>
    <g id="icons-/-404s-/-empty-copy" stroke="none" stroke-width="1" fill="none" fill-rule="evenodd">
        <path d="M4,6 L28,6 C29.1045695,6 30,6.8954305 30,8 L30,24 C30,25.1045695 29.1045695,26 28,26 L4,26 C2.8954305,26 2,25.1045695 2,24 L2,8 C2,6.8954305 2.8954305,6 4,6 Z M4,10 L4,22 C4,23.1045695 4.8954305,24 6,24 L26,24 C27.1045695,24 28,23.1045695 28,22 L28,10 L4,10 Z M22,9 C22.5522847,9 23,8.55228475 23,8 C23,7.44771525 22.5522847,7 22,7 C21.4477153,7 21,7.44771525 21,8 C21,8.55228475 21.4477153,9 22,9 Z M25,9 C25.5522847,9 26,8.55228475 26,8 C26,7.44771525 25.5522847,7 25,7 C24.4477153,7 24,7.44771525 24,8 C24,8.55228475 24.4477153,9 25,9 Z M28,9 C28.5522847,9 29,8.55228475 29,8 C29,7.44771525 28.5522847,7 28,7 C27.4477153,7 27,7.44771525 27,8 C27,8.55228475 27.4477153,9 28,9 Z M11.09,19.8 C10.53,19.8 10.39,19.71 10.39,19.6 L10.39,18.4 L7.2,18.4 C7.09,18.4 7,18.21 7,17.83 C7,17.46 7.05,17.19 7.12,17.1 L10.11,13.3 C10.18,13.21 10.3,13.1 10.8,13.1 C11.49,13.1 11.62,13.23 11.62,13.32 C11.62,13.37 11.61,13.4 11.57,13.45 L8.66,17.2 L10.39,17.2 L10.39,15.86 C10.39,15.74 10.42,15.66 10.51,15.55 L11.43,14.38 C11.5,14.29 11.55,14.25 11.64,14.25 C11.75,14.25 11.79,14.33 11.79,14.44 L11.79,19.6 C11.79,19.71 11.64,19.8 11.09,19.8 Z M16.02,19.9 C14.11,19.9 13.04,18.75 13.04,16.43 C13.04,14.11 14.31,13 16.02,13 C17.73,13 19,14.11 19,16.43 C19,18.75 17.84,19.9 16.02,19.9 Z M16.02,18.75 C17.03,18.75 17.66,18.15 17.66,16.45 C17.66,14.73 16.98,14.17 16.02,14.17 C15.06,14.17 14.38,14.73 14.38,16.45 C14.38,18.15 14.96,18.75 16.02,18.75 Z M23.89,19.8 C23.33,19.8 23.19,19.71 23.19,19.6 L23.19,18.4 L20,18.4 C19.89,18.4 19.8,18.21 19.8,17.83 C19.8,17.46 19.85,17.19 19.92,17.1 L22.91,13.3 C22.98,13.21 23.1,13.1 23.6,13.1 C24.29,13.1 24.42,13.23 24.42,13.32 C24.42,13.37 24.41,13.4 24.37,13.45 L21.46,17.2 L23.19,17.2 L23.19,15.86 C23.19,15.74 23.22,15.66 23.31,15.55 L24.23,14.38 C24.3,14.29 24.35,14.25 24.44,14.25 C24.55,14.25 24.59,14.33 24.59,14.44 L24.59,19.6 C24.59,19.71 24.44,19.8 23.89,19.8 Z" id="Combined-Shape" fill="#FFF"></path>
    </g>
</svg>