<?xml version="1.0" encoding="UTF-8"?>
<svg width="24px" height="24px" viewBox="0 0 24 24" version="1.1" xmlns="http://www.w3.org/2000/svg" xmlns:xlink="http://www.w3.org/1999/xlink">
    <!-- Generator: Sketch 54.1 (76490) - https://sketchapp.com -->
    <title>just@3x</title>
    <desc>Created with Sketch.</desc>
    <g id="Page" stroke="none" stroke-width="1" fill="none" fill-rule="evenodd">
        <g id="Errors" transform="translate(-44.000000, -270.000000)" fill="#585858">
            <path d="M56,291 C51.0294373,291 47,286.970563 47,282 C47,277.029437 51.0294373,273 56,273 C60.9705627,273 65,277.029437 65,282 C65,286.970563 60.9705627,291 56,291 Z M56,294 C49.372583,294 44,288.627417 44,282 C44,275.372583 49.372583,270 56,270 C62.627417,270 68,275.372583 68,282 C68,288.627417 62.627417,294 56,294 Z M56,292 C61.5228475,292 66,287.522847 66,282 C66,276.477153 61.5228475,272 56,272 C50.4771525,272 46,276.477153 46,282 C46,287.522847 50.4771525,292 56,292 Z" id="just"></path>
        </g>
    </g>
</svg>