<?xml version="1.0" encoding="UTF-8"?>
<svg width="24px" height="24px" viewBox="0 0 24 24" version="1.1" xmlns="http://www.w3.org/2000/svg" xmlns:xlink="http://www.w3.org/1999/xlink">
    <!-- Generator: Sketch 54.1 (76490) - https://sketchapp.com -->
    <title>none</title>
    <desc>Created with Sketch.</desc>
    <g id="Page" stroke="none" stroke-width="1" fill="none" fill-rule="evenodd">
        <g id="Errors" transform="translate(-44.000000, -238.000000)" fill="#F48681">
            <path d="M50.3034981,258.219963 C51.9198857,259.342245 53.8831293,260 56,260 C61.5228475,260 66,255.522847 66,250 C66,247.757897 65.2621181,245.688136 64.0159458,244.020308 L50.3034981,258.219963 Z M48.1221193,256.160177 L61.8816751,241.91174 C60.2310841,240.709387 58.1983852,240 56,240 C50.4771525,240 46,244.477153 46,250 C46,252.3237 46.792567,254.462286 48.1221193,256.160177 Z M56,262 C49.372583,262 44,256.627417 44,250 C44,243.372583 49.372583,238 56,238 C62.627417,238 68,243.372583 68,250 C68,256.627417 62.627417,262 56,262 Z" id="none"></path>
        </g>
    </g>
</svg>