<?xml version="1.0" encoding="UTF-8"?>
<svg width="24px" height="24px" viewBox="0 0 24 24" version="1.1" xmlns="http://www.w3.org/2000/svg" xmlns:xlink="http://www.w3.org/1999/xlink">
    <!-- Generator: Sketch 54.1 (76490) - https://sketchapp.com -->
    <title>OK 2</title>
    <desc>Created with Sketch.</desc>
    <g id="Page" stroke="none" stroke-width="1" fill="none" fill-rule="evenodd">
        <g id="Errors" transform="translate(-185.000000, -238.000000)" fill="#585858">
            <path d="M197,262 C190.372583,262 185,256.627417 185,250 C185,243.372583 190.372583,238 197,238 C203.627417,238 209,243.372583 209,250 C209,256.627417 203.627417,262 197,262 Z M197,260 C202.522847,260 207,255.522847 207,250 C207,244.477153 202.522847,240 197,240 C191.477153,240 187,244.477153 187,250 C187,255.522847 191.477153,260 197,260 Z M193.948375,255.177248 L190,252.201934 L191.805445,249.806028 L195.75382,252.781341 L202.371035,244 L204.766942,245.805445 L196.341531,256.986342 L193.945625,255.180897 L193.948375,255.177248 Z" id="OK-2"></path>
        </g>
    </g>
</svg>