<?xml version="1.0" encoding="UTF-8"?>
<svg width="24px" height="24px" viewBox="0 0 24 24" version="1.1" xmlns="http://www.w3.org/2000/svg" xmlns:xlink="http://www.w3.org/1999/xlink">
    <!-- Generator: Sketch 54.1 (76490) - https://sketchapp.com -->
    <title>Error 2</title>
    <desc>Created with Sketch.</desc>
    <g id="Page" stroke="none" stroke-width="1" fill="none" fill-rule="evenodd">
        <g id="Errors" transform="translate(-185.000000, -270.000000)" fill="#F48681">
            <path d="M197,294 C190.372583,294 185,288.627417 185,282 C185,275.372583 190.372583,270 197,270 C203.627417,270 209,275.372583 209,282 C209,288.627417 203.627417,294 197,294 Z M197,292 C202.522847,292 207,287.522847 207,282 C207,276.477153 202.522847,272 197,272 C191.477153,272 187,276.477153 187,282 C187,287.522847 191.477153,292 197,292 Z M195.002574,274.022664 L199.013369,274.022664 L198.488292,286.022664 L195.488292,286.022664 L195.002574,274.022664 Z M195.516214,287.039337 L198.516214,287.039337 L198.516214,290.039337 L195.516214,290.039337 L195.516214,287.039337 Z" id="Error-2"></path>
        </g>
    </g>
</svg>