<?xml version="1.0" encoding="UTF-8"?>
<svg width="100%" height="100%" viewBox="0 0 32 32" version="1.1" xmlns="http://www.w3.org/2000/svg" xmlns:xlink="http://www.w3.org/1999/xlink">
    <!-- Generator: Sketch 54.1 (76490) - https://sketchapp.com -->
    <title>icons / assets / empty copy</title>
    <desc>Created with Sketch.</desc>
    <g id="icons-/-assets-/-empty-copy" stroke="none" stroke-width="1" fill="none" fill-rule="evenodd">
        <path d="M25.6607377,9.51783869 C26.156274,10.013375 26.5714531,11.0044476 26.5714531,11.7142699 L26.5714531,27.1428597 C26.5714531,27.852682 25.9955596,28.4285755 25.2857373,28.4285755 L7.28571582,28.4285755 C6.57589354,28.4285755 6,27.852682 6,27.1428597 L6,5.71426272 C6,5.00444045 6.57589354,4.42854691 7.28571582,4.42854691 L19.2857301,4.42854691 C19.9955524,4.42854691 20.986625,4.84372597 21.4821613,5.33926228 L25.6607377,9.51783869 Z M23.1428776,20.7142806 L18.8571582,16.4285612 L13.7142949,21.5714245 L12.0000072,19.8571367 L9.42857552,22.4285612 L9.42857552,25 L23.1428776,25 L23.1428776,20.7142806 Z M12.0000072,18.142849 C13.4196517,18.142849 14.5714388,16.9910619 14.5714388,15.5714173 C14.5714388,14.1517728 13.4196517,12.9999857 12.0000072,12.9999857 C10.5803626,12.9999857 9.42857552,14.1517728 9.42857552,15.5714173 C9.42857552,16.9910619 10.5803626,18.142849 12.0000072,18.142849 Z M19.7143021,6.24997765 L19.7143021,11.2856979 L24.7500224,11.2856979 C24.6696651,11.0580191 24.5491293,10.8303403 24.4553791,10.7365901 L20.2634099,6.54462086 C20.1696597,6.45087074 19.9419809,6.33033489 19.7143021,6.24997765 Z" id="" fill="#FFF" fill-rule="nonzero"></path>
    </g>
</svg>