<?xml version="1.0" encoding="UTF-8"?>
<svg width="100%" height="100%" viewBox="0 0 32 32" version="1.1" xmlns="http://www.w3.org/2000/svg" xmlns:xlink="http://www.w3.org/1999/xlink">
    <!-- Generator: Sketch 54.1 (76490) - https://sketchapp.com -->
    <title>icons / undefined / empty copy</title>
    <desc>Created with Sketch.</desc>
    <g id="icons-/-undefined-/-empty-copy" stroke="none" stroke-width="1" fill="none" fill-rule="evenodd">
        <path d="M12.8557965,17.1810594 C12.8680346,16.7856932 12.9087691,16.4776734 12.978,16.257 C13.1593342,15.6789971 13.4143317,15.1633356 13.743,14.71 C14.0716683,14.2566644 14.4456646,13.8430019 14.865,13.469 C15.2843354,13.0949981 15.6809981,12.7380017 16.055,12.398 C16.4290019,12.0579983 16.7406654,11.7293349 16.99,11.412 C17.2393346,11.0946651 17.364,10.7546685 17.364,10.392 C17.364,9.77999694 17.1543354,9.34366797 16.735,9.083 C16.3156646,8.82233203 15.8453359,8.692 15.324,8.692 C14.6666634,8.692 14.105669,8.82799864 13.641,9.1 C13.445235,9.21459415 13.180825,9.39255316 12.8477699,9.63387702 L12.8477778,9.633888 C12.4634082,9.91239315 11.9362136,9.88232304 11.5860045,9.56191904 L9.80925419,7.93643788 C9.40175856,7.56362273 9.37364447,6.93105585 9.74645962,6.52356022 C9.77181855,6.49584233 9.79871922,6.46957543 9.82703371,6.44488442 C10.6762904,5.70430948 11.3922792,5.18401468 11.975,4.884 C13.1196724,4.29466372 14.3719932,4 15.732,4 C16.7066715,4 17.6359956,4.10766559 18.52,4.323 C19.4040044,4.53833441 20.1689968,4.87833101 20.815,5.343 C21.4610032,5.80766899 21.9766647,6.39699643 22.362,7.111 C22.7473353,7.82500357 22.94,8.66932846 22.94,9.644 C22.94,10.3920037 22.809668,11.0323307 22.549,11.565 C22.288332,12.0976693 21.9653353,12.5793312 21.58,13.01 C21.1946647,13.4406688 20.7810022,13.8373315 20.339,14.2 C19.8969978,14.5626685 19.4890019,14.9366647 19.115,15.322 C18.7409981,15.7073353 18.4406678,16.132331 18.214,16.597 C18.1291119,16.7710206 18.066875,17.0171662 18.0272893,17.3354366 L18.0272793,17.3354354 C17.9650042,17.8361292 17.5394873,18.212 17.0349356,18.212 L13.8553677,18.2120499 C13.3030554,18.2120499 12.8553178,17.7643123 12.8553178,17.212 C12.8553178,17.2016846 12.8554774,17.1913699 12.8557965,17.1810594 Z M11.788,24.822 C11.788,23.7339946 12.1393298,22.8443368 12.842,22.153 C13.5446702,21.4616632 14.4399946,21.116 15.528,21.116 C16.6160054,21.116 17.5113298,21.4616632 18.214,22.153 C18.9166702,22.8443368 19.268,23.7339946 19.268,24.822 C19.268,25.9100054 18.9166702,26.8109964 18.214,27.525 C17.5113298,28.2390036 16.6160054,28.596 15.528,28.596 C14.4399946,28.596 13.5446702,28.2390036 12.842,27.525 C12.1393298,26.8109964 11.788,25.9100054 11.788,24.822 Z" id="?" fill="#FFF" fill-rule="nonzero"></path>
    </g>
</svg>