<svg xmlns="http://www.w3.org/2000/svg" width="16" height="16" viewBox="0 0 48 48" fill="none">
  <path d="M34.742 37.174L33.432 35.862C33.2587 35.69 33.054 35.604 32.818 35.604C32.5807 35.604 32.376 35.69 32.204 35.862C32.032 36.0327 31.946 36.2347 31.946 36.468C31.946 36.7013 32.032 36.904 32.204 37.076L33.924 38.796C34.172 39.0453 34.4513 39.17 34.762 39.17C35.0727 39.17 35.352 39.0453 35.6 38.796L39.796 34.662C39.968 34.49 40.0607 34.292 40.074 34.068C40.0873 33.8427 39.9947 33.6313 39.796 33.434C39.624 33.262 39.4133 33.176 39.164 33.176C38.9147 33.176 38.7033 33.2627 38.53 33.436L34.742 37.174ZM14.54 17.46H33.464C33.748 17.46 33.9853 17.3647 34.176 17.174C34.3667 16.9833 34.4627 16.7453 34.464 16.46C34.464 16.1493 34.368 15.9053 34.176 15.728C33.9853 15.5493 33.748 15.46 33.464 15.46H14.538C14.254 15.46 14.016 15.5553 13.824 15.746C13.632 15.9367 13.5367 16.1747 13.538 16.46C13.5393 16.7453 13.6347 16.9833 13.824 17.174C14.0133 17.3647 14.2533 17.46 14.54 17.46ZM36 44.232C33.772 44.232 31.882 43.4553 30.33 41.902C28.7767 40.35 28 38.46 28 36.232C28 34.004 28.7767 32.1133 30.33 30.56C31.8833 29.0067 33.7733 28.2307 36 28.232C38.2267 28.2333 40.1173 29.0093 41.672 30.56C43.2267 32.1107 44.0027 34.0013 44 36.232C44 38.4587 43.224 40.3487 41.672 41.902C40.1173 43.4553 38.2267 44.232 36 44.232ZM8 11.232C8 10.336 8.31467 9.57333 8.944 8.944C9.57333 8.31467 10.336 8 11.232 8H36.77C37.6633 8 38.4253 8.31467 39.056 8.944C39.6853 9.57333 40 10.336 40 11.232V21.866C40 22.15 39.9047 22.388 39.714 22.58C39.5233 22.772 39.2853 22.8673 39 22.866C38.7147 22.8647 38.4767 22.7693 38.286 22.58C38.0953 22.3907 38 22.1527 38 21.866V11.232C38 10.924 37.872 10.6413 37.616 10.384C37.36 10.1267 37.0773 9.99867 36.768 10H11.232C10.924 10 10.6413 10.128 10.384 10.384C10.1267 10.64 9.99867 10.9227 10 11.232V38.1H22.688C22.7293 38.3693 22.778 38.6387 22.834 38.908C22.8913 39.1773 22.9647 39.4427 23.054 39.704C23.1433 39.9427 23.0833 40.138 22.874 40.29C22.6633 40.4433 22.4633 40.45 22.274 40.31L21.776 39.97C21.628 39.8727 21.472 39.824 21.308 39.824C21.144 39.824 20.9873 39.8727 20.838 39.97L19.084 41.184C18.936 41.2827 18.78 41.332 18.616 41.332C18.452 41.332 18.2953 41.2827 18.146 41.184L16.392 39.97C16.2427 39.8727 16.086 39.824 15.922 39.824C15.758 39.824 15.602 39.8727 15.454 39.97L13.7 41.184C13.552 41.2827 13.396 41.332 13.232 41.332C13.068 41.332 12.9113 41.2827 12.762 41.184L11.008 39.97C10.8587 39.8727 10.702 39.824 10.538 39.824C10.374 39.824 10.218 39.8727 10.07 39.97L8 41.576V11.232ZM14.54 32.538H22.288C22.5733 32.538 22.8113 32.4427 23.002 32.252C23.1927 32.0613 23.288 31.8233 23.288 31.538C23.288 31.2527 23.1927 31.0153 23.002 30.826C22.8113 30.6367 22.5733 30.5407 22.288 30.538H14.54C14.256 30.538 14.018 30.634 13.826 30.826C13.634 31.018 13.5387 31.2553 13.54 31.538C13.5413 31.8207 13.6367 32.0587 13.826 32.252C14.0153 32.4453 14.2533 32.5407 14.54 32.538ZM14.54 25H28.948C29.232 25 29.47 24.9047 29.662 24.714C29.854 24.5233 29.9493 24.2853 29.948 24C29.9467 23.7147 29.8513 23.4767 29.662 23.286C29.4727 23.0953 29.2347 23 28.948 23H14.538C14.254 23 14.016 23.0953 13.824 23.286C13.632 23.4767 13.5373 23.7147 13.54 24C13.5427 24.2853 13.638 24.5233 13.826 24.714C14.014 24.9047 14.252 25 14.54 25Z" fill="#CACACA"/>
</svg>
