<svg xmlns="http://www.w3.org/2000/svg" width="16" height="16" viewBox="0 0 48 48" fill="none">
  <path d="M6 6H20V20H6V6ZM28 28H42V42H28V28ZM6 28H20V42H6V28ZM43 13C43 15.1217 42.1571 17.1566 40.6569 18.6569C39.1566 20.1571 37.1217 21 35 21C32.8783 21 30.8434 20.1571 29.3431 18.6569C27.8429 17.1566 27 15.1217 27 13C27 10.8783 27.8429 8.84344 29.3431 7.34315C30.8434 5.84285 32.8783 5 35 5C37.1217 5 39.1566 5.84285 40.6569 7.34315C42.1571 8.84344 43 10.8783 43 13Z" stroke="#CACACA" stroke-width="2"/>
</svg>
