<svg xmlns="http://www.w3.org/2000/svg" width="16" height="16" viewBox="0 0 48 48" fill="none">
  <path d="M23.9996 11.9999C23.9998 13.5515 23.4988 15.0617 22.5712 16.3055C21.6435 17.5493 20.3389 18.4601 18.8516 18.9023C19.2788 19.4375 19.85 20.0615 20.5796 20.6879C22.322 22.1807 24.9812 23.6927 28.7996 23.9591C28.8116 22.1563 29.4995 20.4236 30.7273 19.1035C31.9551 17.7834 33.6335 16.972 35.4306 16.8295C37.2278 16.6871 39.0131 17.2241 40.4335 18.3343C41.8539 19.4446 42.8061 21.0473 43.1019 22.8256C43.3977 24.604 43.0156 26.4287 42.0311 27.9389C41.0465 29.4492 39.5313 30.5352 37.7848 30.9822C36.0382 31.4292 34.1876 31.2048 32.5985 30.3532C31.0095 29.5016 29.7978 28.0849 29.2028 26.3831C24.4988 26.1959 21.182 24.3647 19.0196 22.5119C18.6665 22.2078 18.3262 21.8891 17.9996 21.5567V28.9007C19.7797 29.2016 21.3818 30.1602 22.4884 31.5866C23.595 33.013 24.1254 34.8031 23.9744 36.6021C23.8234 38.4011 23.0021 40.0778 21.6733 41.2998C20.3444 42.5218 18.605 43.2 16.7996 43.2C14.9943 43.2 13.2548 42.5218 11.926 41.2998C10.5971 40.0778 9.77582 38.4011 9.62484 36.6021C9.47387 34.8031 10.0042 33.013 11.1108 31.5866C12.2175 30.1602 13.8195 29.2016 15.5996 28.9007V19.0991C14.2461 18.8703 12.9862 18.2594 11.9684 17.3382C10.9506 16.4171 10.2173 15.2243 9.85495 13.9002C9.49263 12.5762 9.51636 11.1761 9.92335 9.86512C10.3303 8.55411 11.1036 7.38677 12.1521 6.50069C13.2005 5.6146 14.4804 5.0467 15.8409 4.86392C17.2014 4.68114 18.5858 4.8911 19.831 5.46904C21.0761 6.04699 22.1301 6.96884 22.8687 8.12595C23.6072 9.28305 23.9996 10.6272 23.9996 11.9999ZM16.8212 16.7999C18.0943 16.7942 19.3129 16.283 20.209 15.3787C21.1051 14.4745 21.6054 13.2513 21.5996 11.9783C21.5939 10.7053 21.0827 9.48664 20.1785 8.59052C19.2742 7.6944 18.0511 7.19418 16.778 7.1999C16.1477 7.20274 15.5241 7.32971 14.9428 7.57355C14.3615 7.81739 13.834 8.17334 13.3902 8.62107C12.4941 9.52529 11.9939 10.7485 11.9996 12.0215C12.0054 13.2945 12.5166 14.5132 13.4208 15.4093C14.325 16.3054 15.5482 16.8056 16.8212 16.7999ZM40.7996 23.9999C40.7996 22.7269 40.2939 21.506 39.3937 20.6058C38.4936 19.7056 37.2727 19.1999 35.9996 19.1999C34.7266 19.1999 33.5057 19.7056 32.6055 20.6058C31.7053 21.506 31.1996 22.7269 31.1996 23.9999C31.1996 25.2729 31.7053 26.4938 32.6055 27.394C33.5057 28.2942 34.7266 28.7999 35.9996 28.7999C37.2727 28.7999 38.4936 28.2942 39.3937 27.394C40.2939 26.4938 40.7996 25.2729 40.7996 23.9999ZM16.7996 40.7999C18.0727 40.7999 19.2936 40.2942 20.1937 39.394C21.0939 38.4938 21.5996 37.2729 21.5996 35.9999C21.5996 34.7269 21.0939 33.506 20.1937 32.6058C19.2936 31.7056 18.0727 31.1999 16.7996 31.1999C15.5266 31.1999 14.3057 31.7056 13.4055 32.6058C12.5053 33.506 11.9996 34.7269 11.9996 35.9999C11.9996 37.2729 12.5053 38.4938 13.4055 39.394C14.3057 40.2942 15.5266 40.7999 16.7996 40.7999Z" fill="#CACACA"/>
</svg>
