<svg xmlns="http://www.w3.org/2000/svg" width="16" height="16" viewBox="0 0 48 48" fill="none">
  <path d="M12 24V20C12 16.8174 13.2643 13.7652 15.5147 11.5147C17.7652 9.26428 20.8174 8 24 8C27.1826 8 30.2348 9.26428 32.4853 11.5147C34.7357 13.7652 36 16.8174 36 20V24M8 36C8 37.0609 8.42143 38.0783 9.17157 38.8284C9.92172 39.5786 10.9391 40 12 40C13.0609 40 14.0783 39.5786 14.8284 38.8284C15.5786 38.0783 16 37.0609 16 36C16 34.9391 15.5786 33.9217 14.8284 33.1716C14.0783 32.4214 13.0609 32 12 32C10.9391 32 9.92172 32.4214 9.17157 33.1716C8.42143 33.9217 8 34.9391 8 36ZM32 36C32 37.0609 32.4214 38.0783 33.1716 38.8284C33.9217 39.5786 34.9391 40 36 40C37.0609 40 38.0783 39.5786 38.8284 38.8284C39.5786 38.0783 40 37.0609 40 36C40 34.9391 39.5786 33.9217 38.8284 33.1716C38.0783 32.4214 37.0609 32 36 32C34.9391 32 33.9217 32.4214 33.1716 33.1716C32.4214 33.9217 32 34.9391 32 36Z" stroke="#CACACA" stroke-width="2" stroke-linecap="round" stroke-linejoin="round"/>
  <path d="M30 18L36 24L42 18" stroke="#CACACA" stroke-width="4" stroke-linecap="round" stroke-linejoin="round"/>
</svg>
