<svg xmlns="http://www.w3.org/2000/svg" width="16" height="16" viewBox="0 0 48 48" fill="none">
  <path d="M27 16.366V9.634C27 9.158 27.156 8.76667 27.468 8.46C27.78 8.15333 28.1667 8 28.628 8H38.388C38.8507 8 39.2347 8.15333 39.54 8.46C39.8453 8.76667 39.9987 9.158 40 9.634V16.366C40 16.8433 39.844 17.2347 39.532 17.54C39.22 17.8467 38.8333 18 38.372 18H28.612C28.1507 18 27.7667 17.8467 27.46 17.54C27.1533 17.2333 27 16.842 27 16.366ZM8 22.4V9.6C8 9.14667 8.156 8.76667 8.468 8.46C8.78 8.15333 9.16667 8 9.628 8H19.388C19.8507 8 20.2347 8.15333 20.54 8.46C20.8453 8.76667 20.9987 9.14667 21 9.6V22.4C21 22.8533 20.844 23.2333 20.532 23.54C20.22 23.8467 19.8333 24 19.372 24H9.612C9.15067 24 8.76667 23.8467 8.46 23.54C8.15333 23.2333 8 22.8533 8 22.4ZM27 38.4V25.6C27 25.1467 27.156 24.7667 27.468 24.46C27.78 24.1533 28.1667 24 28.628 24H38.388C38.8507 24 39.2347 24.1533 39.54 24.46C39.8453 24.7667 39.9987 25.1467 40 25.6V38.4C40 38.8533 39.844 39.2333 39.532 39.54C39.22 39.8467 38.8333 40 38.372 40H28.612C28.1507 40 27.7667 39.8467 27.46 39.54C27.1533 39.2333 27 38.8533 27 38.4ZM8 38.366V31.634C8 31.158 8.156 30.7667 8.468 30.46C8.78 30.1533 9.16667 30 9.628 30H19.388C19.8507 30 20.2347 30.1533 20.54 30.46C20.8453 30.7667 20.9987 31.158 21 31.634V38.366C21 38.8433 20.844 39.2347 20.532 39.54C20.22 39.8467 19.8333 40 19.372 40H9.612C9.15067 40 8.76667 39.8467 8.46 39.54C8.15333 39.2333 8 38.842 8 38.366ZM10 22H19V10H10V22ZM29 38H38V26H29V38ZM29 16H38V10H29V16ZM10 38H19V32H10V38Z" fill="#CACACA"/>
</svg>
