<svg xmlns="http://www.w3.org/2000/svg" width="16" height="16" viewBox="0 0 48 48" fill="none">
  <path d="M11.232 40C10.3107 40 9.542 39.692 8.926 39.076C8.31 38.46 8.00133 37.6907 8 36.768V11.232C8 10.3107 8.30867 9.542 8.926 8.926C9.54333 8.31 10.312 8.00133 11.232 8H23.038C23.3233 8 23.5613 8.09533 23.752 8.286C23.9427 8.47667 24.038 8.71467 24.038 9C24.038 9.28533 23.9427 9.52333 23.752 9.714C23.5613 9.90467 23.3233 10 23.038 10H11.232C10.924 10 10.6413 10.128 10.384 10.384C10.1267 10.64 9.99867 10.9227 10 11.232V36.77C10 37.0767 10.128 37.3587 10.384 37.616C10.64 37.8733 10.922 38.0013 11.23 38H23.038C23.3233 38 23.5613 38.0953 23.752 38.286C23.9427 38.4767 24.038 38.7147 24.038 39C24.038 39.2853 23.9427 39.5233 23.752 39.714C23.5613 39.9047 23.3233 40 23.038 40H11.232ZM36.12 25H19.384C19.1 25 18.8627 24.9047 18.672 24.714C18.4813 24.5233 18.3853 24.2853 18.384 24C18.3827 23.7147 18.478 23.4767 18.67 23.286C18.862 23.0953 19.1 23 19.384 23H36.12L32.178 19.058C31.99 18.8713 31.89 18.646 31.878 18.382C31.8647 18.1167 31.9647 17.874 32.178 17.654C32.39 17.434 32.6253 17.322 32.884 17.318C33.144 17.314 33.384 17.422 33.604 17.642L38.832 22.868C39.1547 23.192 39.316 23.5693 39.316 24C39.316 24.4307 39.154 24.808 38.83 25.132L33.604 30.358C33.4093 30.5527 33.178 30.6547 32.91 30.664C32.642 30.6733 32.398 30.5673 32.178 30.346C31.9647 30.126 31.86 29.888 31.864 29.632C31.868 29.376 31.976 29.1427 32.188 28.932L36.12 25Z" fill="#CACACA"/>
</svg>
