<svg xmlns="http://www.w3.org/2000/svg" width="16" height="16" viewBox="0 0 48 48" fill="none">
  <path d="M12 32V26M24 12V6M36 32V26M20 30V38C20 39.0609 19.5786 40.0783 18.8284 40.8284C18.0783 41.5786 17.0609 42 16 42H8C6.93913 42 5.92172 41.5786 5.17157 40.8284C4.42143 40.0783 4 39.0609 4 38V30C4 28.9391 4.42143 27.9217 5.17157 27.1716C5.92172 26.4214 6.93913 26 8 26H16C17.0609 26 18.0783 26.4214 18.8284 27.1716C19.5786 27.9217 20 28.9391 20 30ZM32 10V18C32 19.0609 31.5786 20.0783 30.8284 20.8284C30.0783 21.5786 29.0609 22 28 22H20C18.9391 22 17.9217 21.5786 17.1716 20.8284C16.4214 20.0783 16 19.0609 16 18V10C16 8.93913 16.4214 7.92172 17.1716 7.17157C17.9217 6.42143 18.9391 6 20 6H28C29.0609 6 30.0783 6.42143 30.8284 7.17157C31.5786 7.92172 32 8.93913 32 10ZM44 30V38C44 39.0609 43.5786 40.0783 42.8284 40.8284C42.0783 41.5786 41.0609 42 40 42H32C30.9391 42 29.9217 41.5786 29.1716 40.8284C28.4214 40.0783 28 39.0609 28 38V30C28 28.9391 28.4214 27.9217 29.1716 27.1716C29.9217 26.4214 30.9391 26 32 26H40C41.0609 26 42.0783 26.4214 42.8284 27.1716C43.5786 27.9217 44 28.9391 44 30Z" stroke="#CACACA" stroke-width="2" stroke-linecap="round" stroke-linejoin="round"/>
</svg>
