<svg xmlns="http://www.w3.org/2000/svg" width="18" height="18" viewBox="0 0 48 48" fill="none">
  <path d="M24 30C27.3137 30 30 27.3137 30 24C30 20.6863 27.3137 18 24 18C20.6863 18 18 20.6863 18 24C18 27.3137 20.6863 30 24 30Z" stroke="#CACACA" stroke-width="3"/>
  <path d="M27.5299 4.304C26.7959 4 25.8639 4 23.9999 4C22.1359 4 21.2039 4 20.4699 4.304C19.9843 4.50503 19.543 4.79979 19.1714 5.17145C18.7997 5.5431 18.505 5.98436 18.3039 6.47C18.1199 6.916 18.0459 7.438 18.0179 8.196C18.0049 8.74386 17.8531 9.27946 17.5768 9.75271C17.3005 10.226 16.9086 10.6214 16.4379 10.902C15.9595 11.1695 15.4211 11.3113 14.873 11.3141C14.3249 11.3169 13.785 11.1806 13.3039 10.918C12.6319 10.562 12.1459 10.366 11.6639 10.302C10.6126 10.1637 9.54932 10.4486 8.70792 11.094C8.07992 11.58 7.61192 12.386 6.67992 14C5.74792 15.614 5.27992 16.42 5.17792 17.21C5.10919 17.7309 5.14376 18.2602 5.27966 18.7678C5.41555 19.2753 5.65011 19.7511 5.96992 20.168C6.26592 20.552 6.67992 20.874 7.32192 21.278C8.26792 21.872 8.87593 22.884 8.87593 24C8.87593 25.116 8.26792 26.128 7.32192 26.72C6.67992 27.126 6.26392 27.448 5.96992 27.832C5.65011 28.2489 5.41555 28.7247 5.27966 29.2322C5.14376 29.7398 5.10919 30.2691 5.17792 30.79C5.28192 31.578 5.74792 32.386 6.67792 34C7.61192 35.614 8.07792 36.42 8.70792 36.906C9.1248 37.2258 9.60059 37.4604 10.1081 37.5963C10.6157 37.7322 11.145 37.7667 11.6659 37.698C12.1459 37.634 12.6319 37.438 13.3039 37.082C13.785 36.8194 14.3249 36.6831 14.873 36.6859C15.4211 36.6887 15.9595 36.8305 16.4379 37.098C17.4039 37.658 17.9779 38.688 18.0179 39.804C18.0459 40.564 18.1179 41.084 18.3039 41.53C18.505 42.0156 18.7997 42.4569 19.1714 42.8286C19.543 43.2002 19.9843 43.495 20.4699 43.696C21.2039 44 22.1359 44 23.9999 44C25.8639 44 26.7959 44 27.5299 43.696C28.0156 43.495 28.4568 43.2002 28.8285 42.8286C29.2001 42.4569 29.4949 42.0156 29.6959 41.53C29.8799 41.084 29.9539 40.564 29.9819 39.804C30.0219 38.688 30.5959 37.656 31.5619 37.098C32.0403 36.8305 32.5788 36.6887 33.1269 36.6859C33.675 36.6831 34.2148 36.8194 34.6959 37.082C35.3679 37.438 35.8539 37.634 36.3339 37.698C36.8548 37.7667 37.3842 37.7322 37.8917 37.5963C38.3993 37.4604 38.8751 37.2258 39.2919 36.906C39.9219 36.422 40.3879 35.614 41.3199 34C42.2519 32.386 42.7199 31.58 42.8219 30.79C42.8907 30.2691 42.8561 29.7398 42.7202 29.2322C42.5843 28.7247 42.3497 28.2489 42.0299 27.832C41.7339 27.448 41.3199 27.126 40.6779 26.722C40.2098 26.4368 39.8217 26.0375 39.5499 25.5614C39.2781 25.0854 39.1315 24.5481 39.1239 24C39.1239 22.884 39.7319 21.872 40.6779 21.28C41.3199 20.874 41.7359 20.552 42.0299 20.168C42.3497 19.7511 42.5843 19.2753 42.7202 18.7678C42.8561 18.2602 42.8907 17.7309 42.8219 17.21C42.7179 16.422 42.2519 15.614 41.3219 14C40.3879 12.386 39.9219 11.58 39.2919 11.094C38.8751 10.7742 38.3993 10.5396 37.8917 10.4037C37.3842 10.2678 36.8548 10.2333 36.3339 10.302C35.8539 10.366 35.3679 10.562 34.6939 10.918C34.2131 11.1803 33.6736 11.3164 33.1259 11.3136C32.5781 11.3108 32.0401 11.1692 31.5619 10.902C31.0912 10.6214 30.6994 10.226 30.423 9.75271C30.1467 9.27946 29.9949 8.74386 29.9819 8.196C29.9539 7.436 29.8819 6.916 29.6959 6.47C29.4949 5.98436 29.2001 5.5431 28.8285 5.17145C28.4568 4.79979 28.0156 4.50503 27.5299 4.304Z" stroke="#CACACA" stroke-width="3"/>
</svg>
