<svg xmlns="http://www.w3.org/2000/svg" width="16" height="16" viewBox="0 0 48 48" fill="none">
  <path d="M37.5 31.875C36.2037 31.8765 34.9476 32.3249 33.9435 33.1446C32.9393 33.9644 32.2485 35.1053 31.9875 36.375H13.5C11.8092 36.375 10.1877 35.7033 8.99219 34.5078C7.79665 33.3123 7.125 31.6908 7.125 30C7.125 28.3092 7.79665 26.6877 8.99219 25.4922C10.1877 24.2967 11.8092 23.625 13.5 23.625H31.5C33.3897 23.625 35.2019 22.8743 36.5381 21.5381C37.8743 20.2019 38.625 18.3897 38.625 16.5C38.625 14.6103 37.8743 12.7981 36.5381 11.4619C35.2019 10.1257 33.3897 9.375 31.5 9.375H13.5C13.2016 9.375 12.9155 9.49353 12.7045 9.7045C12.4935 9.91548 12.375 10.2016 12.375 10.5C12.375 10.7984 12.4935 11.0845 12.7045 11.2955C12.9155 11.5065 13.2016 11.625 13.5 11.625H31.5C32.7929 11.625 34.0329 12.1386 34.9471 13.0529C35.8614 13.9671 36.375 15.2071 36.375 16.5C36.375 17.7929 35.8614 19.0329 34.9471 19.9471C34.0329 20.8614 32.7929 21.375 31.5 21.375H13.5C11.2125 21.375 9.0187 22.2837 7.4012 23.9012C5.7837 25.5187 4.875 27.7125 4.875 30C4.875 32.2875 5.7837 34.4813 7.4012 36.0988C9.0187 37.7163 11.2125 38.625 13.5 38.625H31.9875C32.2004 39.6678 32.7047 40.6288 33.4419 41.3964C34.1791 42.164 35.119 42.7067 36.1523 42.9615C37.1857 43.2162 38.2701 43.1726 39.2796 42.8357C40.2892 42.4988 41.1824 41.8823 41.8556 41.058C42.5288 40.2337 42.9543 39.2353 43.0827 38.1788C43.2112 37.1223 43.0372 36.051 42.5811 35.0894C42.125 34.1278 41.4055 33.3153 40.5061 32.7464C39.6067 32.1774 38.5643 31.8752 37.5 31.875ZM37.5 40.875C36.8325 40.875 36.18 40.6771 35.625 40.3062C35.0699 39.9354 34.6374 39.4083 34.3819 38.7916C34.1265 38.1749 34.0596 37.4963 34.1899 36.8416C34.3201 36.1869 34.6415 35.5855 35.1135 35.1135C35.5855 34.6415 36.1869 34.3201 36.8416 34.1899C37.4963 34.0596 38.1749 34.1265 38.7916 34.3819C39.4083 34.6374 39.9354 35.0699 40.3062 35.625C40.6771 36.18 40.875 36.8325 40.875 37.5C40.875 38.3951 40.5194 39.2535 39.8865 39.8865C39.2535 40.5194 38.3951 40.875 37.5 40.875Z" fill="#CACACA"/>
</svg>
