<?xml version="1.0" encoding="UTF-8"?>
<svg width="100%" height="100%" viewBox="0 0 32 32" version="1.1" xmlns="http://www.w3.org/2000/svg" xmlns:xlink="http://www.w3.org/1999/xlink">
    <!-- Generator: Sketch 54.1 (76490) - https://sketchapp.com -->
    <title>icons / cron / empty copy</title>
    <desc>Created with Sketch.</desc>
    <g id="icons-/-cron-/-empty-copy" stroke="none" stroke-width="1" fill="none" fill-rule="evenodd">
        <path d="M8.67175293,12.3472748 C7.31077576,11.7559662 5.83293152,11.1901855 6.04554749,10.8881073 C6.04496543,10.8855466 6.04438995,10.8829476 6.04382103,10.8803104 C7.96500179,6.81363069 12.1039216,4 16.9,4 C23.527417,4 28.9,9.372583 28.9,16 C28.9,22.627417 23.527417,28 16.9,28 C10.6093362,28 5.44922468,23.1595305 4.94107378,17 L4,17 C3.72385763,17 3.5,16.7761424 3.5,16.5 C3.5,16.3788884 3.54395912,16.2618934 3.62371165,16.1707477 L6.02182754,13.4300438 C6.20366857,13.2222255 6.51954987,13.2011668 6.72736819,13.3830078 C6.74407358,13.397625 6.75978702,13.4133384 6.77440423,13.4300438 L9.17252012,16.1707477 C9.35436115,16.378566 9.33330239,16.6944473 9.12548408,16.8762883 C9.03433833,16.9560409 8.91734335,17 8.79623177,17 L7.95492878,17 C8.05829604,17.9350747 8.3049167,18.8269742 8.67235806,19.6532658 L8.96557899,19.4839746 C9.30038382,19.2906749 9.72849711,19.4053875 9.92179677,19.7401924 L10.2217968,20.2598076 C10.4150964,20.5946125 10.3003838,21.0227257 9.96557899,21.2160254 L9.68351959,21.3788725 C10.231625,22.1130382 10.8891296,22.7607519 11.6318787,23.2978589 L11.7839746,23.034421 C11.9772743,22.6996162 12.4053875,22.5849036 12.7401924,22.7782032 L13.2598076,23.0782032 C13.5946125,23.2715029 13.7093251,23.6996162 13.5160254,24.034421 L13.3727764,24.2825355 C14.1931173,24.6323352 15.0760034,24.8638223 16,24.9555623 L16,23.7 C16,23.3134007 16.3134007,23 16.7,23 L17.3,23 C17.6865993,23 18,23.3134007 18,23.7 L18,24.9334515 C18.9113283,24.822397 19.7806063,24.5751284 20.5868584,24.212621 L20.4839746,24.034421 C20.2906749,23.6996162 20.4053875,23.2715029 20.7401924,23.0782032 L21.2598076,22.7782032 C21.5946125,22.5849036 22.0227257,22.6996162 22.2160254,23.034421 L22.3083692,23.1943652 C23.0205991,22.6580962 23.6506416,22.0185197 24.1762323,21.2979002 L24.034421,21.2160254 C23.6996162,21.0227257 23.5849036,20.5946125 23.7782032,20.2598076 L24.0782032,19.7401924 C24.2715029,19.4053875 24.6996162,19.2906749 25.034421,19.4839746 L25.1680075,19.5611008 C25.5131716,18.7607867 25.7455359,17.90041 25.8450712,17 L24.7,17 C24.3134007,17 24,16.6865993 24,16.3 L24,15.7 C24,15.3134007 24.3134007,15 24.7,15 L25.8450712,15 C25.7455359,14.09959 25.5131716,13.2392133 25.1680075,12.4388992 L25.034421,12.5160254 C24.6996162,12.7093251 24.2715029,12.5946125 24.0782032,12.2598076 L23.7782032,11.7401924 C23.5849036,11.4053875 23.6996162,10.9772743 24.034421,10.7839746 L24.1762323,10.7020998 C23.6506416,9.98148031 23.0205991,9.34190384 22.3083692,8.80563481 L22.2160254,8.96557899 C22.0227257,9.30038382 21.5946125,9.41509643 21.2598076,9.22179677 L20.7401924,8.92179677 C20.4053875,8.72849711 20.2906749,8.30038382 20.4839746,7.96557899 L20.5868584,7.78737904 C19.7806063,7.4248716 18.9113283,7.17760295 18,7.0665485 L18,8.3 C18,8.68659932 17.6865993,9 17.3,9 L16.7,9 C16.3134007,9 16,8.68659932 16,8.3 L16,7.04443772 C15.0760034,7.13617769 14.1931173,7.36766485 13.3727764,7.71746445 L13.5160254,7.96557899 C13.7093251,8.30038382 13.5946125,8.72849711 13.2598076,8.92179677 L12.7401924,9.22179677 C12.4053875,9.41509643 11.9772743,9.30038382 11.7839746,8.96557899 L11.6318787,8.7021411 C10.8891296,9.23924809 10.231625,9.88696181 9.68351959,10.6211275 L9.96557899,10.7839746 C10.3003838,10.9772743 10.4150964,11.4053875 10.2217968,11.7401924 L9.92179677,12.2598076 C9.72849711,12.5946125 9.30038382,12.7093251 8.96557899,12.5160254 L8.67235806,12.3467342 Z M17.8559254,14.1503631 L19.910935,13.2544282 C20.0375007,13.1992486 20.1848343,13.2571185 20.2400139,13.3836841 C20.2677962,13.4474084 20.2677905,13.5198232 20.2399982,13.5835431 L19.3458145,15.6336565 C19.4455354,15.9035779 19.5,16.1954285 19.5,16.5 C19.5,17.8807119 18.3807119,19 17,19 C15.6192881,19 14.5,17.8807119 14.5,16.5 C14.5,15.1192881 15.6192881,14 17,14 C17.3006571,14 17.5889181,14.0530736 17.8559254,14.1503631 Z" id="Combined-Shape" fill="#FFF"></path>
    </g>
</svg>