<?xml version="1.0" encoding="UTF-8"?>
<svg width="100%" height="100%" viewBox="0 0 32 32" version="1.1" xmlns="http://www.w3.org/2000/svg" xmlns:xlink="http://www.w3.org/1999/xlink">
    <!-- Generator: Sketch 54.1 (76490) - https://sketchapp.com -->
    <title>icons / http / empty copy</title>
    <desc>Created with Sketch.</desc>
    <g id="icons-/-http-/-empty-copy" stroke="none" stroke-width="1" fill="#fff" fill-rule="evenodd">
        <path  d="M3.08,10.728 C3.08,10.2959978 3.15599924,9.89200188 3.308,9.516 C3.46000076,9.13999812 3.67199864,8.8120014 3.944,8.532 C4.21600136,8.2519986 4.54399808,8.02800084 4.928,7.86 C5.31200192,7.69199916 5.73599768,7.608 6.2,7.608 C6.66400232,7.608 7.08799808,7.69199916 7.472,7.86 C7.85600192,8.02800084 8.18399864,8.2519986 8.456,8.532 C8.72800136,8.8120014 8.93999924,9.13999812 9.092,9.516 C9.24400076,9.89200188 9.32,10.2959978 9.32,10.728 C9.32,11.1600022 9.24400076,11.5639981 9.092,11.94 C8.93999924,12.3160019 8.72800136,12.6479986 8.456,12.936 C8.18399864,13.2240014 7.85600192,13.4479992 7.472,13.608 C7.08799808,13.7680008 6.66400232,13.848 6.2,13.848 C5.73599768,13.848 5.31200192,13.7680008 4.928,13.608 C4.54399808,13.4479992 4.21600136,13.2240014 3.944,12.936 C3.67199864,12.6479986 3.46000076,12.3160019 3.308,11.94 C3.15599924,11.5639981 3.08,11.1600022 3.08,10.728 Z M3.08,19.168 C3.08,18.7359978 3.15599924,18.3320019 3.308,17.956 C3.46000076,17.5799981 3.67199864,17.2520014 3.944,16.972 C4.21600136,16.6919986 4.54399808,16.4680008 4.928,16.3 C5.31200192,16.1319992 5.73599768,16.048 6.2,16.048 C6.66400232,16.048 7.08799808,16.1319992 7.472,16.3 C7.85600192,16.4680008 8.18399864,16.6919986 8.456,16.972 C8.72800136,17.2520014 8.93999924,17.5799981 9.092,17.956 C9.24400076,18.3320019 9.32,18.7359978 9.32,19.168 C9.32,19.6000022 9.24400076,20.0039981 9.092,20.38 C8.93999924,20.7560019 8.72800136,21.0879986 8.456,21.376 C8.18399864,21.6640014 7.85600192,21.8879992 7.472,22.048 C7.08799808,22.2080008 6.66400232,22.288 6.2,22.288 C5.73599768,22.288 5.31200192,22.2080008 4.928,22.048 C4.54399808,21.8879992 4.21600136,21.6640014 3.944,21.376 C3.67199864,21.0879986 3.46000076,20.7560019 3.308,20.38 C3.15599924,20.0039981 3.08,19.6000022 3.08,19.168 Z M13.8132525,26 L11.4510574,26 C10.8987726,26 10.4510574,25.5522847 10.4510574,25 C10.4510574,24.8783377 10.4732584,24.7576966 10.5165696,24.6440047 L17.7569439,5.63802228 C17.9035279,5.25323914 18.2709822,4.99764056 18.682725,4.99405551 L21.1242456,4.97279716 C21.6765095,4.9679886 22.1281058,5.41178876 22.1329144,5.96405258 C22.1340087,6.08973502 22.1114001,6.21449729 22.0662728,6.33180373 L14.7465729,25.3590445 C14.5980196,25.7452022 14.2269986,26 13.8132525,26 Z M19.8908474,26 L17.5300755,26 C16.9777908,26 16.5300755,25.5522847 16.5300755,25 C16.5300755,24.8785503 16.5521991,24.7581165 16.5953628,24.6445959 L23.8325686,5.61074458 C23.9812779,5.21963902 24.3577632,4.96246901 24.7761699,4.96618818 L27.1427132,4.98722412 C27.6949761,4.99213312 28.1386942,5.44381022 28.1337852,5.99607315 C28.1327303,6.1147438 28.1105603,6.23227929 28.0683124,6.34317994 L20.8253351,25.3559953 C20.6776186,25.7437513 20.3057869,26 19.8908474,26 Z" id="://" fill-rule="nonzero"></path>
    </g>
</svg>