<?xml version="1.0" encoding="UTF-8"?>
<svg width="100%" height="100%" viewBox="0 0 32 32" version="1.1" xmlns="http://www.w3.org/2000/svg" xmlns:xlink="http://www.w3.org/1999/xlink">
    <!-- Generator: Sketch 54.1 (76490) - https://sketchapp.com -->
    <title>icons / types /  empty copy</title>
    <desc>Created with Sketch.</desc>
    <g id="icons-/-types-/--empty-copy" stroke="none" stroke-width="1" fill="none" fill-rule="evenodd">
        <path d="M1.736,17.64 L9.60628974,12.6206826 C10.0719374,12.3237134 10.6901605,12.4604543 10.9871297,12.926102 C11.0895746,13.0867356 11.144,13.2732916 11.144,13.4638123 L11.144,14.2066955 C11.144,14.9075596 10.7771302,15.5572866 10.1769863,15.9192781 L5.096,18.984 L10.1967092,22.1415819 C10.7856313,22.5061527 11.144,23.1494787 11.144,23.8421122 L11.144,24.6001877 C11.144,25.1524725 10.6962847,25.6001877 10.144,25.6001877 C9.95347933,25.6001877 9.76692337,25.5457624 9.60628974,25.4433174 L1.736,20.424 L1.70504715,20.3986101 C0.950130257,19.7793695 0.840142878,18.6653948 1.45938346,17.9104779 C1.5414168,17.810471 1.63417757,17.7197687 1.736,17.64 L1.736,17.64 Z M13.248,10.808 L8.264,10.808 C7.71171525,10.808 7.264,10.3602847 7.264,9.808 L7.264,7.2 C7.264,6.64771525 7.71171525,6.2 8.264,6.2 L23.736,6.2 C24.2882847,6.2 24.736,6.64771525 24.736,7.2 L24.736,9.808 C24.736,10.3602847 24.2882847,10.808 23.736,10.808 L18.752,10.808 L18.752,26 C18.752,26.5522847 18.3042847,27 17.752,27 L14.248,27 C13.6957153,27 13.248,26.5522847 13.248,26 L13.248,10.808 Z M30.264,20.424 L22.3937103,25.4433174 C21.9280626,25.7402866 21.3098395,25.6035457 21.0128703,25.137898 C20.9104254,24.9772644 20.856,24.7907084 20.856,24.6001877 L20.856,23.8573045 C20.856,23.1564404 21.2228698,22.5067134 21.8230137,22.1447219 L26.904,19.08 L21.8032908,15.9224181 C21.2143687,15.5578473 20.856,14.9145213 20.856,14.2218878 L20.856,13.4638123 C20.856,12.9115275 21.3037153,12.4638123 21.856,12.4638123 C22.0465207,12.4638123 22.2330766,12.5182376 22.3937103,12.6206826 L30.264,17.64 L30.264,17.64 C31.0326214,18.2421458 31.1675765,19.3533722 30.5654307,20.1219936 C30.485662,20.223816 30.3949598,20.3165768 30.2949529,20.3986101 L30.264,20.424 Z" id="&lt;T&gt;" fill="#FFF" fill-rule="nonzero"></path>
    </g>
</svg>